<svg xmlns="http://www.w3.org/2000/svg" viewBox="0 -0.5 12 12" shape-rendering="crispEdges">
<metadata>Made with Pixels to Svg https://codepen.io/shshaw/pen/XbxvNj</metadata>
<path stroke="#080708" d="M0 0h3M9 0h3M0 1h1M11 1h1M5 2h2M0 3h1M2 3h1M4 3h4M9 3h1M11 3h1M0 4h3M4 4h4M9 4h3M0 5h12M0 6h12M1 7h10M2 8h2M5 8h2M8 8h2M0 9h1M5 9h2M11 9h1M0 10h2M10 10h2M0 11h5M7 11h5" />
<path stroke="#df2935" d="M3 0h6M1 1h10M0 2h5M7 2h5M1 3h1M3 3h1M8 3h1M10 3h1M3 4h1M8 4h1M0 7h1M11 7h1M0 8h2M4 8h1M7 8h1M10 8h2M1 9h4M7 9h4M2 10h8M5 11h2" />
</svg>